Paysage-Regular.ufo
<glyph name="numbersign" format="1">
  <advance width="644"/>
  <unicode hex="0023"/>
  <note>
    numbersign
  </note>
  <outline>
    <contour>
      <point x="59" y="417" type="line"/>
      <point x="565" y="419" type="line"/>
      <point x="565" y="482" type="line"/>
      <point x="59" y="481" type="line"/>
    </contour>
    <contour>
      <point x="79" y="178" type="line"/>
      <point x="585" y="180" type="line"/>
      <point x="585" y="244" type="line"/>
      <point x="79" y="240" type="line"/>
    </contour>
    <contour>
      <point x="288" y="0" type="line"/>
      <point x="222" y="640" type="line"/>
      <point x="158" y="640" type="line"/>
      <point x="224" y="0" type="line"/>
    </contour>
    <contour>
      <point x="506" y="0" type="line"/>
      <point x="442" y="640" type="line"/>
      <point x="378" y="640" type="line"/>
      <point x="442" y="0" type="line"/>
    </contour>
  </outline>
</glyph>
<glyph name="dollar" format="1">
  <advance width="518"/>
  <unicode hex="0024"/>
  <note>
    dollar
  </note>
  <outline>
    <contour>
      <point x="437" y="560" type="line"/>
      <point x="391" y="584"/>
      <point x="319" y="604"/>
      <point x="249" y="604" type="curve" smooth="yes"/>
      <point x="147" y="604"/>
      <point x="55" y="557"/>
      <point x="55" y="462" type="curve" smooth="yes"/>
      <point x="55" y="369"/>
      <point x="131" y="320"/>
      <point x="242" y="287" type="curve" smooth="yes"/>
      <point x="280" y="276" type="line" smooth="yes"/>
      <point x="374" y="248"/>
      <point x="395" y="236"/>
      <point x="395" y="197" type="curve" smooth="yes"/>
      <point x="395" y="130"/>
      <point x="333" y="122"/>
      <point x="262" y="122" type="curve" smooth="yes"/>
      <point x="193" y="122"/>
      <point x="112" y="144"/>
      <point x="65" y="177" type="curve"/>
      <point x="65" y="100" type="line"/>
      <point x="124" y="65"/>
      <point x="199" y="46"/>
      <point x="268" y="46" type="curve" smooth="yes"/>
      <point x="377" y="46"/>
      <point x="473" y="90"/>
      <point x="473" y="188" type="curve" smooth="yes"/>
      <point x="473" y="270"/>
      <point x="420" y="311"/>
      <point x="295" y="352" type="curve" smooth="yes"/>
      <point x="246" y="368" type="line" smooth="yes"/>
      <point x="163" y="394"/>
      <point x="134" y="426"/>
      <point x="134" y="464" type="curve" smooth="yes"/>
      <point x="134" y="499"/>
      <point x="168" y="531"/>
      <point x="254" y="531" type="curve" smooth="yes"/>
      <point x="315" y="531"/>
      <point x="389" y="511"/>
      <point x="437" y="480" type="curve"/>
    </contour>
    <contour>
      <point x="241" y="-30" type="line"/>
      <point x="298" y="-30" type="line"/>
      <point x="298" y="86" type="line"/>
      <point x="298" y="102" type="line"/>
      <point x="298" y="305" type="line"/>
      <point x="298" y="323" type="line"/>
      <point x="298" y="544" type="line"/>
      <point x="298" y="557" type="line"/>
      <point x="298" y="679" type="line"/>
      <point x="241" y="679" type="line"/>
      <point x="241" y="557" type="line"/>
      <point x="241" y="542" type="line"/>
      <point x="241" y="334" type="line"/>
      <point x="241" y="310" type="line"/>
      <point x="241" y="102" type="line"/>
      <point x="241" y="88" type="line"/>
    </contour>
  </outline>
</glyph>
<glyph name="ampersand" format="1">
  <advance width="603"/>
  <unicode hex="0026"/>
  <outline>
    <contour>
      <point x="172" y="567" type="line"/>
      <point x="506" y="567" type="line"/>
      <point x="506" y="640" type="line"/>
      <point x="75" y="640" type="line"/>
      <point x="75" y="578" type="line"/>
      <point x="484" y="0" type="line"/>
      <point x="575" y="0" type="line"/>
    </contour>
    <contour>
      <point x="462" y="405" type="line"/>
      <point x="489" y="292"/>
      <point x="453" y="199"/>
      <point x="416" y="150" type="curve"/>
      <point x="453" y="114" type="line"/>
      <point x="526" y="184"/>
      <point x="553" y="281"/>
      <point x="543" y="405" type="curve"/>
    </contour>
    <contour>
      <point x="453" y="114" type="curve"/>
      <point x="413" y="150" type="line"/>
      <point x="380" y="98"/>
      <point x="315" y="64"/>
      <point x="250" y="64" type="curve" smooth="yes"/>
      <point x="171" y="64"/>
      <point x="122" y="120"/>
      <point x="122" y="191" type="curve" smooth="yes"/>
      <point x="122" y="254"/>
      <point x="154" y="296"/>
      <point x="258" y="323" type="curve"/>
      <point x="233" y="375" type="line"/>
      <point x="92" y="342"/>
      <point x="37" y="277"/>
      <point x="37" y="179" type="curve" smooth="yes"/>
      <point x="37" y="68"/>
      <point x="123" y="-10"/>
      <point x="236" y="-10" type="curve" smooth="yes"/>
      <point x="374" y="-10"/>
      <point x="434" y="81"/>
    </contour>
  </outline>
</glyph>
<glyph name="plus" format="1">
  <advance width="581"/>
  <unicode hex="002B"/>
  <note>
    plus
  </note>
  <outline>
    <contour>
      <point x="326" y="115" type="line"/>
      <point x="326" y="516" type="line"/>
      <point x="256" y="516" type="line"/>
      <point x="256" y="115" type="line"/>
    </contour>
    <contour>
      <point x="90" y="281" type="line"/>
      <point x="491" y="281" type="line"/>
      <point x="491" y="351" type="line"/>
      <point x="90" y="351" type="line"/>
    </contour>
  </outline>
</glyph>
<glyph name="comma" format="1">
  <advance width="255"/>
  <unicode hex="002C"/>
  <note>
    comma
  </note>
  <outline>
    <contour>
      <point x="116" y="0" type="line"/>
      <point x="110" y="-21"/>
      <point x="92" y="-65"/>
      <point x="65" y="-101" type="curve"/>
      <point x="128" y="-141" type="line"/>
      <point x="170" y="-63"/>
      <point x="182" y="-10"/>
      <point x="180" y="90" type="curve"/>
      <point x="65" y="90" type="line"/>
      <point x="65" y="0" type="line"/>
    </contour>
  </outline>
</glyph>
<glyph name="slash" format="1">
  <advance width="357"/>
  <unicode hex="002F"/>
  <note>
    slash
  </note>
  <outline>
    <contour>
      <point x="232" y="670" type="line"/>
      <point x="301" y="670" type="line"/>
      <point x="127" y="-60" type="line"/>
      <point x="49" y="-60" type="line"/>
    </contour>
    <contour>
      <point x="232" y="670" type="line"/>
      <point x="308" y="670" type="line"/>
      <point x="127" y="-60" type="line"/>
      <point x="49" y="-60" type="line"/>
    </contour>
  </outline>
</glyph>
<glyph name="zero" format="1">
  <advance width="596"/>
  <unicode hex="0030"/>
  <note>
    zero
  </note>
  <outline>
    <contour>
      <point x="469" y="-11"/>
      <point x="526" y="156"/>
      <point x="526" y="329" type="curve" smooth="yes"/>
      <point x="526" y="540"/>
      <point x="469" y="650"/>
      <point x="299" y="650" type="curve" smooth="yes"/>
      <point x="129" y="650"/>
      <point x="70" y="540"/>
      <point x="70" y="329" type="curve" smooth="yes"/>
      <point x="70" y="156"/>
      <point x="129" y="-11"/>
      <point x="299" y="-11" type="curve" smooth="yes"/>
    </contour>
    <contour>
      <point x="411" y="577"/>
      <point x="441" y="493"/>
      <point x="441" y="323" type="curve" smooth="yes"/>
      <point x="441" y="202"/>
      <point x="412" y="62"/>
      <point x="299" y="62" type="curve" smooth="yes"/>
      <point x="184" y="62"/>
      <point x="155" y="202"/>
      <point x="156" y="323" type="curve" smooth="yes"/>
      <point x="157" y="493"/>
      <point x="185" y="577"/>
      <point x="299" y="577" type="curve" smooth="yes"/>
    </contour>
  </outline>
</glyph>
<glyph name="two" format="1">
  <advance width="547"/>
  <unicode hex="0032"/>
  <note>
    two
  </note>
  <outline>
    <contour>
      <point x="80" y="611" type="line"/>
      <point x="125" y="632"/>
      <point x="179" y="650"/>
      <point x="247" y="650" type="curve" smooth="yes"/>
      <point x="416" y="650"/>
      <point x="470" y="553"/>
      <point x="470" y="461" type="curve" smooth="yes"/>
      <point x="470" y="384"/>
      <point x="435" y="303"/>
      <point x="311" y="187" type="curve" smooth="yes"/>
      <point x="190" y="73" type="line"/>
      <point x="477" y="73" type="line"/>
      <point x="477" y="0" type="line"/>
      <point x="70" y="0" type="line"/>
      <point x="70" y="63" type="line"/>
      <point x="206" y="185" type="line" smooth="yes"/>
      <point x="343" y="309"/>
      <point x="385" y="385"/>
      <point x="385" y="460" type="curve" smooth="yes"/>
      <point x="385" y="525"/>
      <point x="339" y="576"/>
      <point x="247" y="576" type="curve" smooth="yes"/>
      <point x="168" y="576"/>
      <point x="121" y="558"/>
      <point x="80" y="539" type="curve"/>
    </contour>
  </outline>
</glyph>
<glyph name="three" format="1">
  <advance width="504"/>
  <unicode hex="0033"/>
  <note>
    three
  </note>
  <outline>
    <contour>
      <point x="333" y="340" type="curve"/>
      <point x="404" y="364"/>
      <point x="438" y="430"/>
      <point x="438" y="481" type="curve" smooth="yes"/>
      <point x="438" y="592"/>
      <point x="334" y="650"/>
      <point x="228" y="650" type="curve" smooth="yes"/>
      <point x="163" y="650"/>
      <point x="108" y="635"/>
      <point x="61" y="611" type="curve"/>
      <point x="61" y="540" type="line"/>
      <point x="102" y="561"/>
      <point x="163" y="576"/>
      <point x="223" y="576" type="curve" smooth="yes"/>
      <point x="293" y="576"/>
      <point x="352" y="547"/>
      <point x="352" y="481" type="curve" smooth="yes"/>
      <point x="352" y="429"/>
      <point x="325" y="376"/>
      <point x="193" y="365" type="curve" smooth="yes"/>
      <point x="116" y="359" type="line"/>
      <point x="126" y="292" type="line"/>
      <point x="219" y="292" type="line" smooth="yes"/>
      <point x="315" y="292"/>
      <point x="379" y="260"/>
      <point x="379" y="183" type="curve" smooth="yes"/>
      <point x="379" y="98"/>
      <point x="314" y="62"/>
      <point x="225" y="62" type="curve" smooth="yes"/>
      <point x="170" y="62"/>
      <point x="99" y="79"/>
      <point x="50" y="105" type="curve"/>
      <point x="50" y="33" type="line"/>
      <point x="95" y="4"/>
      <point x="145" y="-10"/>
      <point x="228" y="-10" type="curve" smooth="yes"/>
      <point x="372" y="-10"/>
      <point x="465" y="63"/>
      <point x="465" y="188" type="curve" smooth="yes"/>
      <point x="465" y="272"/>
      <point x="388" y="330"/>
    </contour>
  </outline>
</glyph>
<glyph name="five" format="1">
  <advance width="550"/>
  <unicode hex="0035"/>
  <note>
    five
  </note>
  <outline>
    <contour>
      <point x="164" y="306"/>
      <point x="220" y="330"/>
      <point x="273" y="330" type="curve" smooth="yes"/>
      <point x="345" y="330"/>
      <point x="405" y="298"/>
      <point x="405" y="202" type="curve" smooth="yes"/>
      <point x="405" y="129"/>
      <point x="374" y="63"/>
      <point x="269" y="63" type="curve" smooth="yes"/>
      <point x="179" y="63"/>
      <point x="132" y="102"/>
      <point x="89" y="134" type="curve"/>
      <point x="89" y="59" type="line"/>
      <point x="132" y="19"/>
      <point x="180" y="-10"/>
      <point x="270" y="-10" type="curve" smooth="yes"/>
      <point x="414" y="-10"/>
      <point x="490" y="82"/>
      <point x="490" y="202" type="curve" smooth="yes"/>
      <point x="490" y="340"/>
      <point x="401" y="401"/>
      <point x="293" y="401" type="curve" smooth="yes"/>
      <point x="248" y="401"/>
      <point x="193" y="387"/>
      <point x="156" y="350" type="curve"/>
      <point x="165" y="326" type="line"/>
      <point x="173" y="461" type="line"/>
      <point x="173" y="566" type="line"/>
      <point x="458" y="566" type="line"/>
      <point x="458" y="639" type="line"/>
      <point x="88" y="639" type="line"/>
      <point x="88" y="275" type="line"/>
      <point x="124" y="264" type="line"/>
    </contour>
  </outline>
</glyph>
<glyph name="seven" format="1">
  <advance width="516"/>
  <unicode hex="0037"/>
  <note>
    seven
  </note>
  <outline>
    <contour>
      <point x="458" y="640" type="line"/>
      <point x="458" y="578" type="line"/>
      <point x="204" y="0" type="line"/>
      <point x="114" y="0" type="line"/>
      <point x="364" y="567" type="line"/>
      <point x="50" y="567" type="line"/>
      <point x="50" y="640" type="line"/>
    </contour>
  </outline>
</glyph>
<glyph name="eight" format="1">
  <advance width="517"/>
  <unicode hex="0038"/>
  <note>
    eight
  </note>
  <outline>
    <contour>
      <point x="65" y="484" type="curve" smooth="yes"/>
      <point x="65" y="421"/>
      <point x="84" y="368"/>
      <point x="154" y="329" type="curve"/>
      <point x="84" y="308"/>
      <point x="39" y="253"/>
      <point x="39" y="175" type="curve" smooth="yes"/>
      <point x="39" y="55"/>
      <point x="135" y="-9"/>
      <point x="262" y="-9" type="curve" smooth="yes"/>
      <point x="398" y="-9"/>
      <point x="478" y="64"/>
      <point x="478" y="160" type="curve" smooth="yes"/>
      <point x="478" y="229"/>
      <point x="453" y="282"/>
      <point x="375" y="317" type="curve"/>
      <point x="433" y="359"/>
      <point x="468" y="411"/>
      <point x="468" y="482" type="curve" smooth="yes"/>
      <point x="468" y="582"/>
      <point x="396" y="649"/>
      <point x="260" y="649" type="curve" smooth="yes"/>
      <point x="126" y="649"/>
      <point x="65" y="579"/>
    </contour>
    <contour>
      <point x="150" y="479" type="curve" smooth="yes"/>
      <point x="150" y="542"/>
      <point x="185" y="577"/>
      <point x="261" y="577" type="curve" smooth="yes"/>
      <point x="340" y="577"/>
      <point x="383" y="541"/>
      <point x="383" y="479" type="curve" smooth="yes"/>
      <point x="383" y="417"/>
      <point x="351" y="381"/>
      <point x="308" y="348" type="curve"/>
      <point x="247" y="366" type="line" smooth="yes"/>
      <point x="162" y="390"/>
      <point x="150" y="441"/>
    </contour>
    <contour>
      <point x="393" y="163" type="curve" smooth="yes"/>
      <point x="393" y="93"/>
      <point x="341" y="63"/>
      <point x="261" y="63" type="curve" smooth="yes"/>
      <point x="190" y="63"/>
      <point x="124" y="93"/>
      <point x="124" y="170" type="curve" smooth="yes"/>
      <point x="124" y="234"/>
      <point x="154" y="281"/>
      <point x="218" y="297" type="curve"/>
      <point x="286" y="283" type="line" smooth="yes"/>
      <point x="346" y="270"/>
      <point x="393" y="238"/>
    </contour>
  </outline>
</glyph>
<glyph name="nine" format="1">
  <advance width="550"/>
  <unicode hex="0039"/>
  <note>
    nine
  </note>
  <outline>
    <contour>
      <point x="406" y="484"/>
      <point x="406" y="312" type="curve" smooth="yes"/>
      <point x="406" y="170"/>
      <point x="353" y="64"/>
      <point x="232" y="64" type="curve" smooth="yes"/>
      <point x="180" y="64"/>
      <point x="129" y="82"/>
      <point x="93" y="101" type="curve"/>
      <point x="93" y="32" type="line"/>
      <point x="129" y="11"/>
      <point x="192" y="-10"/>
      <point x="243" y="-10" type="curve" smooth="yes"/>
      <point x="400" y="-10"/>
      <point x="490" y="104"/>
      <point x="490" y="342" type="curve" smooth="yes"/>
      <point x="490" y="536"/>
      <point x="413" y="649"/>
      <point x="269" y="649" type="curve" smooth="yes"/>
      <point x="131" y="649"/>
      <point x="60" y="558"/>
      <point x="60" y="440" type="curve" smooth="yes"/>
      <point x="60" y="287"/>
      <point x="150" y="228"/>
      <point x="243" y="228" type="curve" smooth="yes"/>
      <point x="322" y="228"/>
      <point x="381" y="263"/>
      <point x="415" y="323" type="curve"/>
      <point x="416" y="397" type="line"/>
      <point x="392" y="346"/>
      <point x="330" y="300"/>
      <point x="265" y="300" type="curve" smooth="yes"/>
      <point x="179" y="300"/>
      <point x="145" y="359"/>
      <point x="145" y="430" type="curve" smooth="yes"/>
      <point x="145" y="543"/>
      <point x="207" y="576"/>
      <point x="269" y="576" type="curve" smooth="yes"/>
      <point x="369" y="576"/>
    </contour>
  </outline>
</glyph>
<glyph name="semicolon" format="1">
  <advance width="265"/>
  <unicode hex="003B"/>
  <note>
    semicolon
  </note>
  <outline>
    <contour>
      <point x="85" y="370" type="line"/>
      <point x="190" y="370" type="line"/>
      <point x="190" y="460" type="line"/>
      <point x="85" y="460" type="line"/>
    </contour>
    <contour>
      <point x="126" y="0" type="line"/>
      <point x="120" y="-21"/>
      <point x="102" y="-65"/>
      <point x="75" y="-101" type="curve"/>
      <point x="138" y="-141" type="line"/>
      <point x="180" y="-63"/>
      <point x="192" y="-10"/>
      <point x="190" y="90" type="curve"/>
      <point x="75" y="90" type="line"/>
      <point x="75" y="0" type="line"/>
    </contour>
  </outline>
</glyph>
<glyph name="greater" format="1">
  <advance width="357"/>
  <unicode hex="003E"/>
  <note>
    greater
  </note>
  <outline>
    <contour>
      <point x="107" y="111" type="line"/>
      <point x="292" y="294" type="line"/>
      <point x="107" y="479" type="line"/>
      <point x="60" y="437" type="line"/>
      <point x="209" y="294" type="line"/>
      <point x="60" y="156" type="line"/>
    </contour>
  </outline>
</glyph>
<glyph name="question" format="1">
  <advance width="506"/>
  <unicode hex="003F"/>
  <outline>
    <contour>
      <point x="442" y="479" type="curve" smooth="yes"/>
      <point x="442" y="594"/>
      <point x="354" y="649"/>
      <point x="247" y="649" type="curve" smooth="yes"/>
      <point x="170" y="649"/>
      <point x="108" y="625"/>
      <point x="66" y="589" type="curve"/>
      <point x="66" y="503" type="line"/>
      <point x="99" y="535"/>
      <point x="163" y="575"/>
      <point x="231" y="575" type="curve" smooth="yes"/>
      <point x="296" y="575"/>
      <point x="348" y="551"/>
      <point x="348" y="478" type="curve" smooth="yes"/>
      <point x="348" y="400"/>
      <point x="285" y="346"/>
      <point x="185" y="304" type="curve"/>
      <point x="198" y="170" type="line"/>
      <point x="254" y="170" type="line"/>
      <point x="262" y="260" type="line"/>
      <point x="380" y="322"/>
      <point x="442" y="402"/>
    </contour>
    <component base="period" xOffset="97"/>
  </outline>
</glyph>
<glyph name="C" format="1">
  <advance width="615"/>
  <unicode hex="0043"/>
  <note>
    C
  </note>
  <outline>
    <contour>
      <point x="150" y="339" type="curve" smooth="yes"/>
      <point x="150" y="472"/>
      <point x="208" y="577"/>
      <point x="354" y="577" type="curve" smooth="yes"/>
      <point x="415" y="577"/>
      <point x="491" y="562"/>
      <point x="566" y="507" type="curve"/>
      <point x="566" y="590" type="line"/>
      <point x="509" y="628"/>
      <point x="440" y="651"/>
      <point x="360" y="651" type="curve" smooth="yes"/>
      <point x="172" y="651"/>
      <point x="60" y="537"/>
      <point x="60" y="340" type="curve" smooth="yes"/>
      <point x="60" y="125"/>
      <point x="175" y="-11"/>
      <point x="352" y="-11" type="curve" smooth="yes"/>
      <point x="422" y="-11"/>
      <point x="509" y="19"/>
      <point x="555" y="53" type="curve"/>
      <point x="555" y="131" type="line"/>
      <point x="522" y="103"/>
      <point x="452" y="64"/>
      <point x="355" y="64" type="curve" smooth="yes"/>
      <point x="222" y="64"/>
      <point x="150" y="163"/>
    </contour>
    <contour>
      <point x="339" y="0" type="move" name="bottom"/>
    </contour>
    <contour>
      <point x="356" y="640" type="move" name="top"/>
    </contour>
  </outline>
</glyph>
<glyph name="P" format="1">
  <advance width="578"/>
  <unicode hex="0050"/>
  <note>
    P
  </note>
  <outline>
    <contour>
      <point x="453" y="348"/>
      <point x="405" y="292"/>
      <point x="300" y="292" type="curve" smooth="yes"/>
      <point x="173" y="292" type="line"/>
      <point x="173" y="567" type="line"/>
      <point x="320" y="567" type="line" smooth="yes"/>
      <point x="396" y="567"/>
      <point x="453" y="531"/>
      <point x="453" y="430" type="curve" smooth="yes"/>
    </contour>
    <contour>
      <point x="173" y="0" type="line"/>
      <point x="173" y="219" type="line"/>
      <point x="300" y="219" type="line" smooth="yes"/>
      <point x="462" y="219"/>
      <point x="538" y="332"/>
      <point x="538" y="441" type="curve" smooth="yes"/>
      <point x="538" y="579"/>
      <point x="454" y="640"/>
      <point x="322" y="640" type="curve" smooth="yes"/>
      <point x="88" y="640" type="line"/>
      <point x="88" y="0" type="line"/>
    </contour>
  </outline>
</glyph>
<glyph name="S" format="1">
  <advance width="541"/>
  <unicode hex="0053"/>
  <note>
    S
  </note>
  <outline>
    <contour>
      <point x="116" y="83"/>
      <point x="69" y="125" type="curve"/>
      <point x="69" y="41" type="line"/>
      <point x="122" y="5"/>
      <point x="202" y="-11"/>
      <point x="272" y="-10" type="curve" smooth="yes"/>
      <point x="392" y="-8"/>
      <point x="493" y="58"/>
      <point x="491" y="173" type="curve" smooth="yes"/>
      <point x="489" y="258"/>
      <point x="426" y="307"/>
      <point x="337" y="341" type="curve" smooth="yes"/>
      <point x="242" y="378" type="line" smooth="yes"/>
      <point x="176" y="403"/>
      <point x="137" y="435"/>
      <point x="136" y="484" type="curve" smooth="yes"/>
      <point x="135" y="537"/>
      <point x="179" y="574"/>
      <point x="262" y="576" type="curve" smooth="yes"/>
      <point x="333" y="577"/>
      <point x="409" y="557"/>
      <point x="454" y="534" type="curve"/>
      <point x="454" y="611" type="line"/>
      <point x="395" y="641"/>
      <point x="328" y="650"/>
      <point x="259" y="649" type="curve" smooth="yes"/>
      <point x="132" y="647"/>
      <point x="48" y="580"/>
      <point x="50" y="483" type="curve" smooth="yes"/>
      <point x="52" y="381"/>
      <point x="133" y="334"/>
      <point x="202" y="307" type="curve" smooth="yes"/>
      <point x="303" y="269" type="line" smooth="yes"/>
      <point x="376" y="241"/>
      <point x="405" y="204"/>
      <point x="406" y="168" type="curve" smooth="yes"/>
      <point x="407" y="96"/>
      <point x="353" y="64"/>
      <point x="274" y="63" type="curve" smooth="yes"/>
      <point x="204" y="62"/>
    </contour>
  </outline>
</glyph>
<glyph name="W" format="1">
  <advance width="840"/>
  <unicode hex="0057"/>
  <outline>
    <contour>
      <point x="38" y="640" type="line"/>
      <point x="190" y="0" type="line"/>
      <point x="283" y="0" type="line"/>
      <point x="396" y="382" type="line"/>
      <point x="418" y="479" type="line"/>
      <point x="423" y="479" type="line"/>
      <point x="444" y="382" type="line"/>
      <point x="557" y="0" type="line"/>
      <point x="650" y="0" type="line"/>
      <point x="802" y="640" type="line"/>
      <point x="717" y="640" type="line"/>
      <point x="623" y="219" type="line"/>
      <point x="602" y="94" type="line"/>
      <point x="599" y="94" type="line"/>
      <point x="570" y="220" type="line"/>
      <point x="453" y="611" type="line"/>
      <point x="387" y="611" type="line"/>
      <point x="270" y="220" type="line"/>
      <point x="241" y="94" type="line"/>
      <point x="238" y="94" type="line"/>
      <point x="217" y="219" type="line"/>
      <point x="123" y="640" type="line"/>
    </contour>
    <contour>
      <point x="417" y="0" type="move" name="bottom"/>
    </contour>
    <contour>
      <point x="417" y="640" type="move" name="top"/>
    </contour>
  </outline>
</glyph>
<glyph name="X" format="1">
  <advance width="488"/>
  <unicode hex="0058"/>
  <note>
    X
  </note>
  <outline>
    <contour>
      <point x="98" y="640" type="line"/>
      <point x="0" y="640" type="line"/>
      <point x="202" y="305" type="line"/>
      <point x="230" y="275" type="line"/>
      <point x="386" y="0" type="line"/>
      <point x="484" y="0" type="line"/>
      <point x="280" y="339" type="line"/>
      <point x="252" y="367" type="line"/>
    </contour>
    <contour>
      <point x="395" y="640" type="line"/>
      <point x="239" y="367" type="line"/>
      <point x="205" y="334" type="line"/>
      <point x="0" y="0" type="line"/>
      <point x="93" y="0" type="line"/>
      <point x="254" y="277" type="line"/>
      <point x="285" y="310" type="line"/>
      <point x="488" y="640" type="line"/>
    </contour>
  </outline>
</glyph>
<glyph name="bracketleft" format="1">
  <advance width="313"/>
  <unicode hex="005B"/>
  <note>
    bracketleft
  </note>
  <outline>
    <contour>
      <point x="140" y="-57" type="line"/>
      <point x="140" y="667" type="line"/>
      <point x="247" y="667" type="line"/>
      <point x="247" y="730" type="line"/>
      <point x="55" y="730" type="line"/>
      <point x="55" y="-120" type="line"/>
      <point x="247" y="-120" type="line"/>
      <point x="247" y="-57" type="line"/>
    </contour>
  </outline>
</glyph>
<glyph name="underscore" format="1">
  <advance width="610"/>
  <unicode hex="005F"/>
  <note>
    underscore
  </note>
  <outline>
    <contour>
      <point x="520" y="50" type="line"/>
      <point x="520" y="0" type="line"/>
      <point x="90" y="0" type="line"/>
      <point x="90" y="50" type="line"/>
    </contour>
  </outline>
</glyph>
<glyph name="j" format="1">
  <advance width="270"/>
  <unicode hex="006A"/>
  <outline>
    <contour>
      <point x="100" y="560" type="line"/>
      <point x="190" y="560" type="line"/>
      <point x="190" y="640" type="line"/>
      <point x="100" y="640" type="line"/>
    </contour>
    <component base="jdotless"/>
    <contour>
      <point x="145" y="460" type="move" name="_top"/>
    </contour>
  </outline>
</glyph>
<glyph name="braceleft" format="1">
  <advance width="402"/>
  <unicode hex="007B"/>
  <note>
    braceleft
  </note>
  <outline>
    <contour>
      <point x="211" y="528" type="line" smooth="yes"/>
      <point x="212" y="603"/>
      <point x="203" y="665"/>
      <point x="318" y="665" type="curve" smooth="yes"/>
      <point x="342" y="665" type="line"/>
      <point x="342" y="730" type="line"/>
      <point x="300" y="730" type="line" smooth="yes"/>
      <point x="221" y="730"/>
      <point x="127" y="691"/>
      <point x="127" y="558" type="curve" smooth="yes"/>
      <point x="127" y="432" type="line" smooth="yes"/>
      <point x="127" y="365"/>
      <point x="91" y="337"/>
      <point x="47" y="337" type="curve" smooth="yes"/>
      <point x="30" y="337" type="line"/>
      <point x="30" y="271" type="line"/>
      <point x="47" y="271" type="line" smooth="yes"/>
      <point x="91" y="271"/>
      <point x="127" y="243"/>
      <point x="127" y="176" type="curve" smooth="yes"/>
      <point x="127" y="53" type="line" smooth="yes"/>
      <point x="127" y="-80"/>
      <point x="221" y="-119"/>
      <point x="300" y="-119" type="curve" smooth="yes"/>
      <point x="342" y="-119" type="line"/>
      <point x="342" y="-55" type="line"/>
      <point x="318" y="-55" type="line" smooth="yes"/>
      <point x="203" y="-55"/>
      <point x="212" y="8"/>
      <point x="211" y="83" type="curve" smooth="yes"/>
      <point x="210" y="192" type="line" smooth="yes"/>
      <point x="209" y="261"/>
      <point x="185" y="295"/>
      <point x="136" y="302" type="curve"/>
      <point x="136" y="306" type="line"/>
      <point x="185" y="313"/>
      <point x="209" y="347"/>
      <point x="210" y="416" type="curve" smooth="yes"/>
    </contour>
  </outline>
</glyph>
<glyph name="sterling" format="1">
  <advance width="591"/>
  <unicode hex="00A3"/>
  <outline>
    <contour>
      <point x="332" y="577" type="curve" smooth="yes"/>
      <point x="410" y="577"/>
      <point x="447" y="559"/>
      <point x="488" y="541" type="curve"/>
      <point x="488" y="611" type="line"/>
      <point x="443" y="632"/>
      <point x="400" y="650"/>
      <point x="331" y="650" type="curve" smooth="yes"/>
      <point x="162" y="650"/>
      <point x="117" y="562"/>
      <point x="117" y="473" type="curve" smooth="yes"/>
      <point x="117" y="369"/>
      <point x="198" y="331"/>
      <point x="198" y="236" type="curve" smooth="yes"/>
      <point x="198" y="174"/>
      <point x="155" y="96"/>
      <point x="89" y="61" type="curve"/>
      <point x="89" y="-1" type="line"/>
      <point x="503" y="-1" type="line"/>
      <point x="503" y="72" type="line"/>
      <point x="190" y="72" type="line"/>
      <point x="271" y="119"/>
      <point x="283" y="192"/>
      <point x="283" y="236" type="curve" smooth="yes"/>
      <point x="283" y="324"/>
      <point x="203" y="400"/>
      <point x="203" y="474" type="curve" smooth="yes"/>
      <point x="203" y="539"/>
      <point x="241" y="577"/>
    </contour>
    <contour>
      <point x="190" y="290" type="line"/>
      <point x="240" y="287" type="line"/>
      <point x="473" y="287" type="line"/>
      <point x="472" y="358" type="line"/>
      <point x="232" y="358" type="line"/>
      <point x="153" y="358" type="line"/>
      <point x="68" y="358" type="line"/>
      <point x="68" y="290" type="line"/>
    </contour>
  </outline>
</glyph>
<glyph name="copyright" format="1">
  <advance width="804"/>
  <unicode hex="00A9"/>
  <outline>
    <contour>
      <point x="406" y="155" type="curve" smooth="yes"/>
      <point x="302" y="155"/>
      <point x="237" y="220"/>
      <point x="237" y="324" type="curve" smooth="yes"/>
      <point x="237" y="428"/>
      <point x="301" y="490"/>
      <point x="407" y="490" type="curve" smooth="yes"/>
      <point x="443" y="490"/>
      <point x="483" y="483"/>
      <point x="523" y="469" type="curve"/>
      <point x="523" y="417" type="line"/>
      <point x="484" y="429"/>
      <point x="446" y="436"/>
      <point x="414" y="436" type="curve" smooth="yes"/>
      <point x="340" y="436"/>
      <point x="301" y="397"/>
      <point x="301" y="324" type="curve" smooth="yes"/>
      <point x="301" y="252"/>
      <point x="345" y="209"/>
      <point x="420" y="209" type="curve" smooth="yes"/>
      <point x="451" y="209"/>
      <point x="488" y="216"/>
      <point x="523" y="232" type="curve"/>
      <point x="523" y="187" type="line"/>
      <point x="487" y="168"/>
      <point x="458" y="155"/>
    </contour>
    <contour>
      <point x="402" y="-11" type="curve" smooth="yes"/>
      <point x="184" y="-11"/>
      <point x="70" y="102"/>
      <point x="70" y="320" type="curve" smooth="yes"/>
      <point x="70" y="538"/>
      <point x="184" y="651"/>
      <point x="402" y="651" type="curve" smooth="yes"/>
      <point x="620" y="651"/>
      <point x="734" y="538"/>
      <point x="734" y="320" type="curve" smooth="yes"/>
      <point x="734" y="102"/>
      <point x="620" y="-11"/>
    </contour>
    <contour>
      <point x="402" y="35" type="curve" smooth="yes"/>
      <point x="589" y="35"/>
      <point x="686" y="133"/>
      <point x="686" y="320" type="curve" smooth="yes"/>
      <point x="686" y="507"/>
      <point x="589" y="604"/>
      <point x="402" y="604" type="curve" smooth="yes"/>
      <point x="216" y="604"/>
      <point x="117" y="507"/>
      <point x="117" y="320" type="curve" smooth="yes"/>
      <point x="117" y="133"/>
      <point x="216" y="35"/>
    </contour>
  </outline>
</glyph>
<glyph name="guillemetleft" format="1">
  <advance width="473"/>
  <unicode hex="00AB"/>
  <note>
    guillemotleft
  </note>
  <outline>
    <contour>
      <point x="95" y="272" type="curve"/>
      <point x="95" y="274" type="line"/>
      <point x="141" y="323"/>
      <point x="197" y="372"/>
      <point x="233" y="421" type="curve"/>
      <point x="180" y="474" type="line"/>
      <point x="153" y="433"/>
      <point x="59" y="322"/>
      <point x="20" y="274" type="curve"/>
      <point x="20" y="272" type="line"/>
      <point x="59" y="224"/>
      <point x="153" y="113"/>
      <point x="180" y="72" type="curve"/>
      <point x="233" y="125" type="line"/>
      <point x="197" y="174"/>
      <point x="141" y="223"/>
    </contour>
    <contour>
      <point x="295" y="272" type="curve"/>
      <point x="295" y="274" type="line"/>
      <point x="341" y="323"/>
      <point x="397" y="372"/>
      <point x="433" y="421" type="curve"/>
      <point x="380" y="474" type="line"/>
      <point x="353" y="433"/>
      <point x="259" y="322"/>
      <point x="220" y="274" type="curve"/>
      <point x="220" y="272" type="line"/>
      <point x="259" y="224"/>
      <point x="353" y="113"/>
      <point x="380" y="72" type="curve"/>
      <point x="433" y="125" type="line"/>
      <point x="397" y="174"/>
      <point x="341" y="223"/>
    </contour>
  </outline>
</glyph>
<glyph name="degree" format="1">
  <advance width="293"/>
  <unicode hex="00B0"/>
  <note>
    degree
  </note>
  <outline>
    <contour>
      <point x="151" y="419" type="curve" smooth="yes"/>
      <point x="214" y="419"/>
      <point x="266" y="471"/>
      <point x="266" y="535" type="curve" smooth="yes"/>
      <point x="266" y="598"/>
      <point x="214" y="650"/>
      <point x="151" y="650" type="curve" smooth="yes"/>
      <point x="87" y="650"/>
      <point x="35" y="598"/>
      <point x="35" y="535" type="curve" smooth="yes"/>
      <point x="35" y="471"/>
      <point x="87" y="419"/>
    </contour>
    <contour>
      <point x="151" y="468" type="curve" smooth="yes"/>
      <point x="114" y="468"/>
      <point x="84" y="498"/>
      <point x="84" y="535" type="curve" smooth="yes"/>
      <point x="84" y="571"/>
      <point x="114" y="601"/>
      <point x="151" y="601" type="curve" smooth="yes"/>
      <point x="187" y="601"/>
      <point x="217" y="571"/>
      <point x="217" y="535" type="curve" smooth="yes"/>
      <point x="217" y="498"/>
      <point x="187" y="468"/>
    </contour>
  </outline>
</glyph>
<glyph name="plusminus" format="1">
  <advance width="561"/>
  <unicode hex="00B1"/>
  <outline>
    <contour>
      <point x="316" y="245" type="line"/>
      <point x="316" y="566" type="line"/>
      <point x="246" y="566" type="line"/>
      <point x="246" y="245" type="line"/>
    </contour>
    <contour>
      <point x="90" y="362" type="line"/>
      <point x="471" y="362" type="line"/>
      <point x="471" y="432" type="line"/>
      <point x="90" y="432" type="line"/>
    </contour>
    <contour>
      <point x="90" y="99" type="line"/>
      <point x="471" y="99" type="line"/>
      <point x="471" y="169" type="line"/>
      <point x="90" y="169" type="line"/>
    </contour>
  </outline>
</glyph>
<glyph name="periodcentered" format="1">
  <advance width="170"/>
  <unicode hex="00B7"/>
  <note>
    periodcentered
  </note>
  <outline>
    <contour>
      <point x="120" y="198" type="line"/>
      <point x="120" y="278" type="line"/>
      <point x="50" y="278" type="line"/>
      <point x="50" y="198" type="line"/>
    </contour>
  </outline>
</glyph>
<glyph name="AE" format="1">
  <advance width="779"/>
  <unicode hex="00C6"/>
  <note>
    AE
  </note>
  <outline>
    <contour>
      <point x="203" y="245" type="line"/>
      <point x="170" y="173" type="line"/>
      <point x="383" y="171" type="line"/>
      <point x="383" y="0" type="line"/>
      <point x="725" y="0" type="line"/>
      <point x="725" y="73" type="line"/>
      <point x="468" y="73" type="line"/>
      <point x="468" y="293" type="line"/>
      <point x="686" y="293" type="line"/>
      <point x="686" y="365" type="line"/>
      <point x="468" y="365" type="line"/>
      <point x="468" y="567" type="line"/>
      <point x="725" y="567" type="line"/>
      <point x="725" y="640" type="line"/>
      <point x="329" y="640" type="line"/>
      <point x="29" y="0" type="line"/>
      <point x="116" y="0" type="line"/>
      <point x="285" y="362" type="line"/>
      <point x="375" y="566" type="line"/>
      <point x="383" y="566" type="line"/>
      <point x="383" y="245" type="line"/>
    </contour>
    <contour>
      <point x="605" y="0" type="move" name="bottom"/>
    </contour>
    <contour>
      <point x="793" y="0" type="move" name="ogonek"/>
    </contour>
    <contour>
      <point x="596" y="640" type="move" name="top"/>
    </contour>
    <contour>
      <point x="383" y="640" type="move" name="topleft"/>
    </contour>
  </outline>
</glyph>
<glyph name="multiply" format="1">
  <advance width="480"/>
  <unicode hex="00D7"/>
  <note>
    multiply
  </note>
  <outline>
    <contour>
      <point x="390" y="423" type="line"/>
      <point x="347" y="465" type="line"/>
      <point x="240" y="358" type="line"/>
      <point x="132" y="466" type="line"/>
      <point x="90" y="423" type="line"/>
      <point x="198" y="316" type="line"/>
      <point x="90" y="208" type="line"/>
      <point x="132" y="165" type="line"/>
      <point x="240" y="273" type="line"/>
      <point x="347" y="166" type="line"/>
      <point x="390" y="208" type="line"/>
      <point x="283" y="316" type="line"/>
    </contour>
  </outline>
</glyph>
<glyph name="Oslash" format="1">
  <advance width="692"/>
  <unicode hex="00D8"/>
  <outline>
    <contour>
      <point x="86" y="29" type="line"/>
      <point x="161" y="123" type="line"/>
      <point x="176" y="142" type="line"/>
      <point x="494" y="542" type="line"/>
      <point x="515" y="568" type="line"/>
      <point x="581" y="651" type="line"/>
      <point x="632" y="610" type="line"/>
      <point x="553" y="511" type="line"/>
      <point x="538" y="494" type="line"/>
      <point x="216" y="88" type="line"/>
      <point x="197" y="63" type="line"/>
      <point x="137" y="-13" type="line"/>
    </contour>
    <component base="O"/>
  </outline>
</glyph>
<glyph name="Thorn" format="1">
  <advance width="582"/>
  <unicode hex="00DE"/>
  <outline>
    <contour>
      <point x="151" y="531" type="line"/>
      <point x="151" y="458" type="line"/>
      <point x="323" y="457" type="line" smooth="yes"/>
      <point x="398" y="457"/>
      <point x="457" y="422"/>
      <point x="457" y="321" type="curve" smooth="yes"/>
      <point x="457" y="239"/>
      <point x="408" y="184"/>
      <point x="304" y="184" type="curve" smooth="yes"/>
      <point x="151" y="183" type="line"/>
      <point x="151" y="110" type="line"/>
      <point x="305" y="110" type="line" smooth="yes"/>
      <point x="466" y="110"/>
      <point x="542" y="224"/>
      <point x="542" y="331" type="curve" smooth="yes"/>
      <point x="542" y="470"/>
      <point x="457" y="531"/>
      <point x="324" y="531" type="curve" smooth="yes"/>
    </contour>
    <contour>
      <point x="173" y="0" type="line"/>
      <point x="173" y="640" type="line"/>
      <point x="88" y="640" type="line"/>
      <point x="88" y="0" type="line"/>
    </contour>
  </outline>
</glyph>
<glyph name="germandbls" format="1">
  <advance width="549"/>
  <unicode hex="00DF"/>
  <note>
    germandbls
  </note>
  <outline>
    <contour>
      <point x="403" y="284" type="curve" smooth="yes"/>
      <point x="364" y="318" type="line"/>
      <point x="416" y="379"/>
      <point x="444" y="425"/>
      <point x="444" y="472" type="curve" smooth="yes"/>
      <point x="444" y="560"/>
      <point x="367" y="619"/>
      <point x="254" y="619" type="curve" smooth="yes"/>
      <point x="146" y="619"/>
      <point x="87" y="565"/>
      <point x="88" y="491" type="curve" smooth="yes"/>
      <point x="88" y="0" type="line"/>
      <point x="168" y="0" type="line"/>
      <point x="168" y="480" type="line" smooth="yes"/>
      <point x="168" y="514"/>
      <point x="188" y="549"/>
      <point x="250" y="549" type="curve" smooth="yes"/>
      <point x="314" y="549"/>
      <point x="364" y="532"/>
      <point x="364" y="465" type="curve" smooth="yes"/>
      <point x="364" y="428"/>
      <point x="339" y="383"/>
      <point x="268" y="309" type="curve"/>
      <point x="375" y="220" type="line" smooth="yes"/>
      <point x="410" y="191"/>
      <point x="427" y="166"/>
      <point x="427" y="124" type="curve" smooth="yes"/>
      <point x="427" y="80"/>
      <point x="400" y="61"/>
      <point x="346" y="61" type="curve" smooth="yes"/>
      <point x="303" y="61"/>
      <point x="265" y="76"/>
      <point x="234" y="94" type="curve"/>
      <point x="234" y="26" type="line"/>
      <point x="255" y="8"/>
      <point x="289" y="-10"/>
      <point x="354" y="-10" type="curve" smooth="yes"/>
      <point x="428" y="-10"/>
      <point x="504" y="38"/>
      <point x="504" y="128" type="curve" smooth="yes"/>
      <point x="504" y="191"/>
      <point x="463" y="232"/>
    </contour>
  </outline>
</glyph>
<glyph name="ae" format="1">
  <advance width="809"/>
  <unicode hex="00E6"/>
  <note>
    ae
  </note>
  <outline>
    <contour>
      <point x="563" y="470" type="curve" smooth="yes"/>
      <point x="490" y="470"/>
      <point x="437" y="440"/>
      <point x="402" y="395" type="curve"/>
      <point x="370" y="443"/>
      <point x="311" y="470"/>
      <point x="230" y="470" type="curve" smooth="yes"/>
      <point x="158" y="470"/>
      <point x="94" y="449"/>
      <point x="58" y="421" type="curve"/>
      <point x="58" y="346" type="line"/>
      <point x="87" y="369"/>
      <point x="149" y="400"/>
      <point x="224" y="400" type="curve" smooth="yes"/>
      <point x="287" y="400"/>
      <point x="352" y="376"/>
      <point x="358" y="291" type="curve"/>
      <point x="184" y="256" type="line" smooth="yes"/>
      <point x="98" y="239"/>
      <point x="51" y="191"/>
      <point x="51" y="126" type="curve" smooth="yes"/>
      <point x="51" y="54"/>
      <point x="104" y="-10"/>
      <point x="203" y="-10" type="curve" smooth="yes"/>
      <point x="267" y="-10"/>
      <point x="346" y="26"/>
      <point x="393" y="124" type="curve"/>
      <point x="425" y="24"/>
      <point x="485" y="-10"/>
      <point x="576" y="-10" type="curve" smooth="yes"/>
      <point x="656" y="-10"/>
      <point x="715" y="28"/>
      <point x="739" y="52" type="curve"/>
      <point x="739" y="114" type="line"/>
      <point x="694" y="77"/>
      <point x="644" y="60"/>
      <point x="586" y="60" type="curve" smooth="yes"/>
      <point x="490" y="60"/>
      <point x="443" y="123"/>
      <point x="437" y="214" type="curve"/>
      <point x="755" y="214" type="line"/>
      <point x="775" y="360"/>
      <point x="722" y="470"/>
    </contour>
    <contour>
      <point x="439" y="274" type="line"/>
      <point x="450" y="357"/>
      <point x="500" y="400"/>
      <point x="565" y="400" type="curve" smooth="yes"/>
      <point x="645" y="400"/>
      <point x="677" y="346"/>
      <point x="680" y="274" type="curve"/>
    </contour>
    <contour>
      <point x="212" y="65" type="curve" smooth="yes"/>
      <point x="167" y="65"/>
      <point x="136" y="87"/>
      <point x="136" y="127" type="curve" smooth="yes"/>
      <point x="136" y="164"/>
      <point x="156" y="187"/>
      <point x="223" y="199" type="curve" smooth="yes"/>
      <point x="372" y="227" type="line"/>
      <point x="372" y="213" type="line" smooth="yes"/>
      <point x="372" y="130"/>
      <point x="290" y="65"/>
    </contour>
  </outline>
</glyph>
<glyph name="eth" format="1">
  <advance width="521"/>
  <unicode hex="00F0"/>
  <outline>
    <contour>
      <point x="388" y="173" type="curve"/>
      <point x="409" y="320" type="line"/>
      <point x="381" y="403"/>
      <point x="299" y="446"/>
      <point x="227" y="446" type="curve" smooth="yes"/>
      <point x="120" y="446"/>
      <point x="55" y="376"/>
      <point x="55" y="229" type="curve" smooth="yes"/>
      <point x="55" y="103"/>
      <point x="118" y="-10"/>
      <point x="247" y="-10" type="curve" smooth="yes"/>
      <point x="368" y="-10"/>
      <point x="461" y="75"/>
      <point x="461" y="295" type="curve" smooth="yes"/>
      <point x="461" y="493"/>
      <point x="310" y="609"/>
      <point x="272" y="640" type="curve"/>
      <point x="178" y="640" type="line"/>
      <point x="178" y="633" type="line"/>
      <point x="279" y="557"/>
      <point x="386" y="428"/>
      <point x="386" y="283" type="curve" smooth="yes"/>
      <point x="386" y="132"/>
      <point x="334" y="59"/>
      <point x="243" y="59" type="curve" smooth="yes"/>
      <point x="184" y="59"/>
      <point x="140" y="104"/>
      <point x="140" y="230" type="curve" smooth="yes"/>
      <point x="140" y="333"/>
      <point x="168" y="385"/>
      <point x="245" y="385" type="curve" smooth="yes"/>
      <point x="290" y="385"/>
      <point x="395" y="361"/>
    </contour>
    <contour>
      <point x="237" y="482" type="line"/>
      <point x="311" y="523" type="line"/>
      <point x="322" y="529" type="line"/>
      <point x="413" y="579" type="line"/>
      <point x="386" y="627" type="line"/>
      <point x="302" y="582" type="line"/>
      <point x="283" y="572" type="line"/>
      <point x="206" y="530" type="line"/>
    </contour>
  </outline>
</glyph>
<glyph name="divide" format="1">
  <advance width="581"/>
  <unicode hex="00F7"/>
  <note>
    divide
  </note>
  <outline>
    <contour>
      <point x="249" y="423" type="line"/>
      <point x="326" y="423" type="line"/>
      <point x="326" y="500" type="line"/>
      <point x="249" y="500" type="line"/>
    </contour>
    <contour>
      <point x="249" y="106" type="line"/>
      <point x="326" y="106" type="line"/>
      <point x="326" y="183" type="line"/>
      <point x="249" y="183" type="line"/>
    </contour>
    <contour>
      <point x="90" y="268" type="line"/>
      <point x="491" y="268" type="line"/>
      <point x="491" y="338" type="line"/>
      <point x="90" y="338" type="line"/>
    </contour>
  </outline>
</glyph>
<glyph name="oslash" format="1">
  <advance width="547"/>
  <unicode hex="00F8"/>
  <note>
    oslash
  </note>
  <outline>
    <contour>
      <point x="57" y="11" type="line"/>
      <point x="126" y="97" type="line"/>
      <point x="137" y="110" type="line"/>
      <point x="364" y="392" type="line"/>
      <point x="374" y="404" type="line"/>
      <point x="446" y="494" type="line"/>
      <point x="492" y="456" type="line"/>
      <point x="419" y="366" type="line"/>
      <point x="409" y="353" type="line"/>
      <point x="172" y="59" type="line"/>
      <point x="161" y="45" type="line"/>
      <point x="103" y="-27" type="line"/>
    </contour>
    <component base="o"/>
  </outline>
</glyph>
<glyph name="thorn" format="1">
  <advance width="580"/>
  <unicode hex="00FE"/>
  <outline>
    <contour>
      <point x="85" y="680" type="line"/>
      <point x="165" y="680" type="line"/>
      <point x="165" y="-80" type="line"/>
      <point x="85" y="-80" type="line"/>
    </contour>
    <component base="p"/>
  </outline>
</glyph>
<glyph name="idotless" format="1">
  <advance width="250"/>
  <unicode hex="0131"/>
  <outline>
    <contour>
      <point x="165" y="460" type="line"/>
      <point x="165" y="0" type="line"/>
      <point x="85" y="0" type="line"/>
      <point x="85" y="460" type="line"/>
    </contour>
    <contour>
      <point x="124" y="0" type="move" name="bottom"/>
    </contour>
    <contour>
      <point x="165" y="0" type="move" name="ogonek"/>
    </contour>
    <contour>
      <point x="124" y="460" type="move" name="top"/>
    </contour>
  </outline>
</glyph>
<glyph name="Eng" format="1">
  <advance width="665"/>
  <unicode hex="014A"/>
  <outline>
    <contour>
      <point x="492" y="4" type="line" smooth="yes"/>
      <point x="492" y="-53"/>
      <point x="476" y="-86"/>
      <point x="431" y="-86" type="curve" smooth="yes"/>
      <point x="400" y="-86"/>
      <point x="383" y="-78"/>
      <point x="371" y="-72" type="curve"/>
      <point x="371" y="-124" type="line"/>
      <point x="385" y="-142"/>
      <point x="413" y="-156"/>
      <point x="448" y="-156" type="curve" smooth="yes"/>
      <point x="533" y="-156"/>
      <point x="577" y="-107"/>
      <point x="577" y="6" type="curve" smooth="yes"/>
      <point x="577" y="241" type="line"/>
      <point x="506" y="241" type="line"/>
      <point x="522" y="83" type="line"/>
      <point x="492" y="32" type="line"/>
    </contour>
    <component base="N"/>
  </outline>
</glyph>
<glyph name="eng" format="1">
  <advance width="560"/>
  <unicode hex="014B"/>
  <outline>
    <contour>
      <point x="485" y="231" type="line"/>
      <point x="485" y="-8" type="line" smooth="yes"/>
      <point x="485" y="-123"/>
      <point x="441" y="-170"/>
      <point x="356" y="-170" type="curve" smooth="yes"/>
      <point x="323" y="-170"/>
      <point x="295" y="-156"/>
      <point x="281" y="-138" type="curve"/>
      <point x="281" y="-90" type="line"/>
      <point x="293" y="-96"/>
      <point x="310" y="-104"/>
      <point x="342" y="-104" type="curve" smooth="yes"/>
      <point x="388" y="-104"/>
      <point x="405" y="-69"/>
      <point x="405" y="-11" type="curve" smooth="yes"/>
      <point x="405" y="231" type="line"/>
    </contour>
    <component base="n"/>
    <contour>
      <point x="450" y="460" type="move" name="top"/>
    </contour>
  </outline>
</glyph>
<glyph name="OE" format="1">
  <advance width="862"/>
  <unicode hex="0152"/>
  <outline>
    <contour>
      <point x="808" y="73" type="line"/>
      <point x="808" y="0" type="line"/>
      <point x="438" y="0" type="line"/>
      <point x="438" y="640" type="line"/>
      <point x="808" y="640" type="line"/>
      <point x="808" y="567" type="line"/>
      <point x="523" y="567" type="line"/>
      <point x="523" y="365" type="line"/>
      <point x="768" y="365" type="line"/>
      <point x="768" y="293" type="line"/>
      <point x="523" y="293" type="line"/>
      <point x="523" y="73" type="line"/>
    </contour>
    <contour>
      <point x="523" y="0" type="line"/>
      <point x="397" y="0" type="line" smooth="yes"/>
      <point x="172" y="0"/>
      <point x="60" y="151"/>
      <point x="60" y="338" type="curve" smooth="yes"/>
      <point x="60" y="488"/>
      <point x="113" y="640"/>
      <point x="368" y="640" type="curve" smooth="yes"/>
      <point x="523" y="640" type="line"/>
    </contour>
    <contour>
      <point x="437" y="73" type="line"/>
      <point x="437" y="567" type="line"/>
      <point x="382" y="567" type="line" smooth="yes"/>
      <point x="233" y="567"/>
      <point x="151" y="512"/>
      <point x="151" y="336" type="curve" smooth="yes"/>
      <point x="151" y="194"/>
      <point x="216" y="73"/>
      <point x="389" y="73" type="curve" smooth="yes"/>
    </contour>
    <contour>
      <point x="271" y="0" type="move" name="bottom"/>
    </contour>
    <contour>
      <point x="480" y="306" type="move" name="center"/>
    </contour>
    <contour>
      <point x="499" y="10" type="move" name="ogonek"/>
    </contour>
    <contour>
      <point x="218" y="640" type="move" name="top"/>
    </contour>
    <contour>
      <point x="-114" y="640" type="move" name="topleft"/>
    </contour>
  </outline>
</glyph>
<glyph name="oe" format="1">
  <advance width="857"/>
  <unicode hex="0153"/>
  <outline>
    <contour>
      <point x="611" y="470" type="curve" smooth="yes"/>
      <point x="536" y="470"/>
      <point x="482" y="439"/>
      <point x="448" y="392" type="curve"/>
      <point x="412" y="443"/>
      <point x="352" y="470"/>
      <point x="272" y="470" type="curve" smooth="yes"/>
      <point x="140" y="470"/>
      <point x="55" y="397"/>
      <point x="55" y="241" type="curve" smooth="yes"/>
      <point x="55" y="102"/>
      <point x="144" y="-10"/>
      <point x="272" y="-10" type="curve" smooth="yes"/>
      <point x="342" y="-10"/>
      <point x="405" y="25"/>
      <point x="445" y="84" type="curve"/>
      <point x="485" y="22"/>
      <point x="551" y="-10"/>
      <point x="624" y="-10" type="curve" smooth="yes"/>
      <point x="704" y="-10"/>
      <point x="766" y="23"/>
      <point x="787" y="43" type="curve"/>
      <point x="787" y="114" type="line"/>
      <point x="742" y="77"/>
      <point x="692" y="65"/>
      <point x="634" y="65" type="curve" smooth="yes"/>
      <point x="542" y="65"/>
      <point x="499" y="119"/>
      <point x="490" y="204" type="curve"/>
      <point x="803" y="204" type="line"/>
      <point x="823" y="350"/>
      <point x="770" y="470"/>
    </contour>
    <contour>
      <point x="491" y="274" type="line"/>
      <point x="502" y="356"/>
      <point x="548" y="395"/>
      <point x="613" y="395" type="curve" smooth="yes"/>
      <point x="693" y="395"/>
      <point x="725" y="346"/>
      <point x="728" y="274" type="curve"/>
    </contour>
    <contour>
      <point x="272" y="65" type="curve" smooth="yes"/>
      <point x="190" y="65"/>
      <point x="140" y="133"/>
      <point x="140" y="241" type="curve" smooth="yes"/>
      <point x="140" y="342"/>
      <point x="174" y="395"/>
      <point x="272" y="395" type="curve" smooth="yes"/>
      <point x="368" y="395"/>
      <point x="404" y="345"/>
      <point x="404" y="241" type="curve" smooth="yes"/>
      <point x="404" y="149"/>
      <point x="363" y="65"/>
    </contour>
  </outline>
</glyph>
<glyph name="jdotless" format="1">
  <advance width="265"/>
  <unicode hex="0237"/>
  <outline>
    <contour>
      <point x="105" y="-11" type="line" smooth="yes"/>
      <point x="105" y="-69"/>
      <point x="87" y="-104"/>
      <point x="41" y="-104" type="curve" smooth="yes"/>
      <point x="9" y="-104"/>
      <point x="-8" y="-96"/>
      <point x="-20" y="-90" type="curve"/>
      <point x="-20" y="-138" type="line"/>
      <point x="-6" y="-156"/>
      <point x="22" y="-170"/>
      <point x="55" y="-170" type="curve" smooth="yes"/>
      <point x="140" y="-170"/>
      <point x="184" y="-123"/>
      <point x="185" y="-8" type="curve" smooth="yes"/>
      <point x="185" y="460" type="line"/>
      <point x="105" y="460" type="line"/>
    </contour>
    <contour>
      <point x="145" y="460" type="move" name="top"/>
    </contour>
  </outline>
</glyph>
<glyph name="circumflexcomb" format="1">
  <advance width="445"/>
  <unicode hex="0302"/>
  <outline>
    <contour>
      <point x="223" y="647" type="curve"/>
      <point x="221" y="647" type="line"/>
      <point x="188" y="628"/>
      <point x="118" y="598"/>
      <point x="76" y="586" type="curve"/>
      <point x="85" y="528" type="line"/>
      <point x="115" y="536"/>
      <point x="183" y="563"/>
      <point x="220" y="582" type="curve"/>
      <point x="224" y="582" type="line"/>
      <point x="261" y="563"/>
      <point x="329" y="536"/>
      <point x="359" y="528" type="curve"/>
      <point x="368" y="586" type="line"/>
      <point x="326" y="598"/>
      <point x="256" y="628"/>
    </contour>
    <contour>
      <point x="222" y="470" type="move" name="_top"/>
    </contour>
  </outline>
</glyph>
<glyph name="macroncomb" format="1">
  <advance width="300"/>
  <unicode hex="0304"/>
  <outline>
    <contour>
      <point x="50" y="540" type="line"/>
      <point x="250" y="540" type="line"/>
      <point x="250" y="600" type="line"/>
      <point x="50" y="600" type="line"/>
    </contour>
    <contour>
      <point x="150" y="460" type="move" name="_top"/>
    </contour>
  </outline>
</glyph>
<glyph name="brevecomb" format="1">
  <advance width="390"/>
  <unicode hex="0306"/>
  <outline>
    <contour>
      <point x="264" y="640" type="line"/>
      <point x="263" y="587"/>
      <point x="232" y="571"/>
      <point x="195" y="571" type="curve" smooth="yes"/>
      <point x="158" y="571"/>
      <point x="127" y="587"/>
      <point x="126" y="640" type="curve"/>
      <point x="60" y="640" type="line"/>
      <point x="62" y="566"/>
      <point x="111" y="516"/>
      <point x="195" y="516" type="curve" smooth="yes"/>
      <point x="279" y="516"/>
      <point x="328" y="566"/>
      <point x="330" y="640" type="curve"/>
    </contour>
    <contour>
      <point x="195" y="460" type="move" name="_top"/>
    </contour>
    <contour>
      <point x="195" y="640" type="move" name="top"/>
    </contour>
  </outline>
</glyph>
<glyph name="dotaccentcomb" format="1">
  <advance width="280"/>
  <unicode hex="0307"/>
  <outline>
    <contour>
      <point x="95" y="560" type="line"/>
      <point x="185" y="560" type="line"/>
      <point x="185" y="640" type="line"/>
      <point x="95" y="640" type="line"/>
    </contour>
    <contour>
      <point x="140" y="460" type="move" name="_top"/>
    </contour>
  </outline>
</glyph>
<glyph name="dieresiscomb" format="1">
  <advance width="497"/>
  <unicode hex="0308"/>
  <outline>
    <contour>
      <point x="135" y="545" type="line"/>
      <point x="212" y="545" type="line"/>
      <point x="212" y="622" type="line"/>
      <point x="135" y="622" type="line"/>
    </contour>
    <contour>
      <point x="285" y="545" type="line"/>
      <point x="362" y="545" type="line"/>
      <point x="362" y="622" type="line"/>
      <point x="285" y="622" type="line"/>
    </contour>
    <contour>
      <point x="249" y="460" type="move" name="_top"/>
    </contour>
    <contour>
      <point x="249" y="639" type="move" name="top"/>
    </contour>
  </outline>
</glyph>
<glyph name="ringcomb" format="1">
  <advance width="266"/>
  <unicode hex="030A"/>
  <outline>
    <contour>
      <point x="218" y="603" type="curve" smooth="yes"/>
      <point x="218" y="554"/>
      <point x="181" y="520"/>
      <point x="133" y="520" type="curve" smooth="yes"/>
      <point x="87" y="520"/>
      <point x="48" y="553"/>
      <point x="48" y="603" type="curve" smooth="yes"/>
      <point x="48" y="652"/>
      <point x="84" y="682"/>
      <point x="133" y="682" type="curve" smooth="yes"/>
      <point x="182" y="682"/>
      <point x="218" y="653"/>
    </contour>
    <contour>
      <point x="173" y="603" type="curve" smooth="yes"/>
      <point x="173" y="629"/>
      <point x="158" y="645"/>
      <point x="133" y="645" type="curve" smooth="yes"/>
      <point x="108" y="645"/>
      <point x="93" y="629"/>
      <point x="93" y="603" type="curve" smooth="yes"/>
      <point x="93" y="578"/>
      <point x="111" y="557"/>
      <point x="133" y="557" type="curve" smooth="yes"/>
      <point x="155" y="557"/>
      <point x="173" y="578"/>
    </contour>
    <contour>
      <point x="133" y="460" type="move" name="_top"/>
    </contour>
    <contour>
      <point x="133" y="700" type="move" name="top"/>
    </contour>
  </outline>
</glyph>
<glyph name="hungarumlautcomb" format="1">
  <advance width="371"/>
  <unicode hex="030B"/>
  <outline>
    <contour>
      <point x="88" y="650" type="line"/>
      <point x="30" y="520" type="line"/>
      <point x="67" y="520" type="line"/>
      <point x="181" y="650" type="line"/>
    </contour>
    <contour>
      <point x="229" y="650" type="line"/>
      <point x="171" y="520" type="line"/>
      <point x="208" y="520" type="line"/>
      <point x="322" y="650" type="line"/>
    </contour>
    <contour>
      <point x="137" y="460" type="move" name="_top"/>
    </contour>
    <contour>
      <point x="186" y="654" type="move" name="top"/>
    </contour>
  </outline>
</glyph>
<glyph name="caroncomb" format="1">
  <advance width="445"/>
  <unicode hex="030C"/>
  <outline>
    <contour>
      <point x="337" y="623" type="line"/>
      <point x="309" y="647" type="line"/>
      <point x="225" y="585" type="line"/>
      <point x="220" y="585" type="line"/>
      <point x="135" y="647" type="line"/>
      <point x="108" y="623" type="line"/>
      <point x="187" y="520" type="line"/>
      <point x="257" y="520" type="line"/>
    </contour>
    <contour>
      <point x="223" y="460" type="move" name="_top"/>
    </contour>
    <contour>
      <point x="223" y="647" type="move" name="top"/>
    </contour>
  </outline>
</glyph>
<glyph name="commaturnedabovecomb" format="1">
  <advance width="221"/>
  <unicode hex="0312"/>
  <outline>
    <component base="acutecomb" xScale="-1" yScale="-1" xOffset="260" yOffset="1170"/>
    <contour>
      <point x="148" y="460" type="move" name="_top"/>
    </contour>
    <contour>
      <point x="148" y="687" type="move" name="top"/>
    </contour>
  </outline>
</glyph>
<glyph name="commaaccentcomb" format="1">
  <advance width="221"/>
  <unicode hex="0326"/>
  <outline>
    <component base="comma" xOffset="15" yOffset="-170"/>
    <contour>
      <point x="141" y="0" type="move" name="_bottom"/>
    </contour>
    <contour>
      <point x="141" y="-197" type="move" name="bottom"/>
    </contour>
  </outline>
</glyph>
<glyph name="cedillacomb" format="1">
  <advance width="221"/>
  <unicode hex="0327"/>
  <outline>
    <contour>
      <point x="17" y="-61" type="line"/>
      <point x="23" y="-76" type="line"/>
      <point x="76" y="-84"/>
      <point x="106" y="-86"/>
      <point x="103" y="-104" type="curve" smooth="yes"/>
      <point x="100" y="-124"/>
      <point x="65" y="-131"/>
      <point x="-7" y="-126" type="curve"/>
      <point x="-7" y="-168" type="line"/>
      <point x="58" y="-177"/>
      <point x="155" y="-168"/>
      <point x="166" y="-101" type="curve" smooth="yes"/>
      <point x="173" y="-60"/>
      <point x="120" y="-50"/>
      <point x="93" y="-44" type="curve"/>
      <point x="135" y="6" type="line"/>
      <point x="71" y="15" type="line"/>
    </contour>
    <contour>
      <point x="88" y="0" type="move" name="_bottom"/>
    </contour>
    <contour>
      <point x="111" y="-197" type="move" name="bottom"/>
    </contour>
  </outline>
</glyph>
<glyph name="ogonekcomb" format="1">
  <advance width="600"/>
  <unicode hex="0328"/>
  <outline>
    <contour>
      <point x="303" y="0" type="line"/>
      <point x="244" y="-19"/>
      <point x="227" y="-47"/>
      <point x="227" y="-72" type="curve" smooth="yes"/>
      <point x="227" y="-102"/>
      <point x="246" y="-110"/>
      <point x="271" y="-110" type="curve" smooth="yes"/>
      <point x="285" y="-110"/>
      <point x="301" y="-107"/>
      <point x="317" y="-105" type="curve"/>
      <point x="317" y="-161" type="line"/>
      <point x="300" y="-167"/>
      <point x="283" y="-170"/>
      <point x="266" y="-170" type="curve" smooth="yes"/>
      <point x="213" y="-170"/>
      <point x="166" y="-141"/>
      <point x="166" y="-92" type="curve" smooth="yes"/>
      <point x="166" y="-12"/>
      <point x="239" y="10"/>
      <point x="288" y="30" type="curve"/>
    </contour>
    <contour>
      <point x="303" y="0" type="move" name="_ogonek"/>
    </contour>
  </outline>
</glyph>
<glyph name="strokeshortcomb" format="1">
  <advance width="450"/>
  <unicode hex="0335"/>
  <outline>
    <contour>
      <point x="100" y="331" type="line"/>
      <point x="350" y="331" type="line"/>
      <point x="350" y="388" type="line"/>
      <point x="100" y="388" type="line"/>
    </contour>
    <contour>
      <point x="225" y="306" type="move" name="_center"/>
    </contour>
  </outline>
</glyph>
<glyph name="strokelongcomb" format="1">
  <advance width="700"/>
  <unicode hex="0336"/>
  <outline>
    <contour>
      <point x="650" y="368" type="line"/>
      <point x="650" y="298" type="line"/>
      <point x="536" y="298" type="line"/>
      <point x="520" y="298" type="line"/>
      <point x="135" y="298" type="line"/>
      <point x="121" y="298" type="line"/>
      <point x="50" y="298" type="line"/>
      <point x="50" y="368" type="line"/>
      <point x="121" y="368" type="line"/>
      <point x="135" y="368" type="line"/>
      <point x="520" y="368" type="line"/>
      <point x="536" y="368" type="line"/>
    </contour>
    <contour>
      <point x="350" y="330" type="move" name="_center"/>
    </contour>
  </outline>
</glyph>
<glyph name="slashshortcomb" format="1">
  <advance width="332"/>
  <unicode hex="0337"/>
  <outline>
    <contour>
      <point x="59" y="339" type="line"/>
      <point x="272" y="459" type="line"/>
      <point x="272" y="529" type="line"/>
      <point x="59" y="409" type="line"/>
    </contour>
    <contour>
      <point x="163" y="429" type="move" name="_center"/>
    </contour>
  </outline>
</glyph>
<glyph name="Germandbls" format="1">
  <advance width="640"/>
  <unicode hex="1E9E"/>
  <outline>
    <contour>
      <point x="540" y="266"/>
      <point x="443" y="322" type="curve"/>
      <point x="573" y="514" type="line"/>
      <point x="520" y="585"/>
      <point x="458" y="650"/>
      <point x="325" y="650" type="curve" smooth="yes"/>
      <point x="159" y="650"/>
      <point x="88" y="564"/>
      <point x="88" y="430" type="curve" smooth="yes"/>
      <point x="88" y="0" type="line"/>
      <point x="173" y="0" type="line"/>
      <point x="173" y="422" type="line" smooth="yes"/>
      <point x="173" y="533"/>
      <point x="221" y="577"/>
      <point x="319" y="577" type="curve" smooth="yes"/>
      <point x="390" y="577"/>
      <point x="439" y="549"/>
      <point x="475" y="496" type="curve"/>
      <point x="345" y="304" type="line"/>
      <point x="487" y="225"/>
      <point x="517" y="193"/>
      <point x="517" y="132" type="curve" smooth="yes"/>
      <point x="517" y="85"/>
      <point x="479" y="63"/>
      <point x="428" y="63" type="curve" smooth="yes"/>
      <point x="383" y="63"/>
      <point x="327" y="80"/>
      <point x="278" y="113" type="curve"/>
      <point x="278" y="36" type="line"/>
      <point x="328" y="5"/>
      <point x="382" y="-10"/>
      <point x="432" y="-10" type="curve" smooth="yes"/>
      <point x="519" y="-10"/>
      <point x="593" y="37"/>
      <point x="593" y="130" type="curve" smooth="yes"/>
      <point x="593" y="211"/>
    </contour>
    <contour>
      <point x="502" y="0" type="move" name="bottom"/>
    </contour>
    <contour>
      <point x="513" y="460" type="move" name="top"/>
    </contour>
  </outline>
</glyph>
<glyph name="figuredash" format="1">
  <advance width="789"/>
  <unicode hex="2012"/>
  <note>
    figuredash
  </note>
  <outline>
    <contour>
      <point x="90" y="217" type="line"/>
      <point x="699" y="217" type="line"/>
      <point x="699" y="257" type="line"/>
      <point x="90" y="257" type="line"/>
    </contour>
  </outline>
</glyph>
<glyph name="endash" format="1">
  <advance width="571"/>
  <unicode hex="2013"/>
  <note>
    endash
  </note>
  <outline>
    <contour>
      <point x="90" y="255" type="line"/>
      <point x="481" y="255" type="line"/>
      <point x="481" y="307" type="line"/>
      <point x="90" y="307" type="line"/>
    </contour>
  </outline>
</glyph>
<glyph name="emdash" format="1">
  <advance width="1053"/>
  <unicode hex="2014"/>
  <note>
    emdash
  </note>
  <outline>
    <contour>
      <point x="90" y="255" type="line"/>
      <point x="963" y="255" type="line"/>
      <point x="963" y="305" type="line"/>
      <point x="90" y="305" type="line"/>
    </contour>
  </outline>
</glyph>
<glyph name="bullet" format="1">
  <advance width="312"/>
  <unicode hex="2022"/>
  <note>
    bullet
  </note>
  <outline>
    <contour>
      <point x="114" y="233"/>
      <point x="80" y="257"/>
      <point x="80" y="309" type="curve" smooth="yes"/>
      <point x="80" y="360"/>
      <point x="114" y="384"/>
      <point x="156" y="384" type="curve" smooth="yes"/>
      <point x="198" y="384"/>
      <point x="232" y="360"/>
      <point x="232" y="309" type="curve" smooth="yes"/>
      <point x="232" y="257"/>
      <point x="198" y="233"/>
      <point x="156" y="233" type="curve" smooth="yes"/>
    </contour>
  </outline>
</glyph>
<glyph name="guilsinglleft" format="1">
  <advance width="293"/>
  <unicode hex="2039"/>
  <note>
    guilsinglleft
  </note>
  <outline>
    <contour>
      <point x="95" y="272" type="curve"/>
      <point x="95" y="274" type="line"/>
      <point x="141" y="313"/>
      <point x="217" y="372"/>
      <point x="253" y="421" type="curve"/>
      <point x="200" y="474" type="line"/>
      <point x="173" y="433"/>
      <point x="59" y="312"/>
      <point x="20" y="274" type="curve"/>
      <point x="20" y="272" type="line"/>
      <point x="59" y="234"/>
      <point x="173" y="113"/>
      <point x="200" y="72" type="curve"/>
      <point x="253" y="125" type="line"/>
      <point x="217" y="174"/>
      <point x="141" y="233"/>
    </contour>
  </outline>
</glyph>
<glyph name="arrowright" format="1">
  <advance width="692"/>
  <unicode hex="2192"/>
  <outline>
    <contour>
      <point x="433" y="494" type="curve"/>
      <point x="380" y="441" type="line"/>
      <point x="436" y="392"/>
      <point x="482" y="343"/>
      <point x="548" y="294" type="curve"/>
      <point x="548" y="290" type="line"/>
      <point x="482" y="241"/>
      <point x="436" y="192"/>
      <point x="380" y="143" type="curve"/>
      <point x="433" y="90" type="line"/>
      <point x="460" y="121"/>
      <point x="574" y="242"/>
      <point x="623" y="290" type="curve"/>
      <point x="623" y="294" type="line"/>
      <point x="574" y="342"/>
      <point x="460" y="463"/>
    </contour>
    <contour>
      <point x="70" y="255" type="line"/>
      <point x="571" y="264" type="line"/>
      <point x="571" y="320" type="line"/>
      <point x="70" y="329" type="line"/>
    </contour>
  </outline>
</glyph>
<glyph name="minus" format="1">
  <advance width="621"/>
  <unicode hex="2212"/>
  <outline>
    <contour>
      <point x="90" y="275" type="line"/>
      <point x="531" y="275" type="line"/>
      <point x="531" y="345" type="line"/>
      <point x="90" y="345" type="line"/>
    </contour>
  </outline>
</glyph>
<glyph name="approxequal" format="1">
  <advance width="566"/>
  <unicode hex="2248"/>
  <outline>
    <contour>
      <point x="476" y="393" type="line"/>
      <point x="445" y="373"/>
      <point x="415" y="368"/>
      <point x="375" y="368" type="curve" smooth="yes"/>
      <point x="323" y="368"/>
      <point x="273" y="403"/>
      <point x="200" y="403" type="curve" smooth="yes"/>
      <point x="151" y="403"/>
      <point x="122" y="397"/>
      <point x="90" y="376" type="curve"/>
      <point x="90" y="312" type="line"/>
      <point x="119" y="327"/>
      <point x="151" y="339"/>
      <point x="188" y="339" type="curve" smooth="yes"/>
      <point x="254" y="339"/>
      <point x="311" y="302"/>
      <point x="372" y="302" type="curve" smooth="yes"/>
      <point x="409" y="302"/>
      <point x="448" y="305"/>
      <point x="476" y="328" type="curve"/>
    </contour>
    <contour>
      <point x="476" y="213" type="line"/>
      <point x="445" y="193"/>
      <point x="415" y="188"/>
      <point x="375" y="188" type="curve" smooth="yes"/>
      <point x="323" y="188"/>
      <point x="273" y="223"/>
      <point x="200" y="223" type="curve" smooth="yes"/>
      <point x="151" y="223"/>
      <point x="122" y="217"/>
      <point x="90" y="196" type="curve"/>
      <point x="90" y="132" type="line"/>
      <point x="119" y="147"/>
      <point x="151" y="159"/>
      <point x="188" y="159" type="curve" smooth="yes"/>
      <point x="254" y="159"/>
      <point x="311" y="122"/>
      <point x="372" y="122" type="curve" smooth="yes"/>
      <point x="409" y="122"/>
      <point x="448" y="125"/>
      <point x="476" y="148" type="curve"/>
    </contour>
  </outline>
</glyph>
<glyph name="notequal" format="1">
  <advance width="600"/>
  <unicode hex="2260"/>
  <outline>
    <contour>
      <point x="423" y="527" type="line"/>
      <point x="237" y="78" type="line"/>
      <point x="166" y="78" type="line"/>
      <point x="352" y="527" type="line"/>
    </contour>
    <component base="equal"/>
  </outline>
</glyph>
<glyph name=".notdef" format="1">
  <advance width="878"/>
  <note>
    .notdef
  </note>
  <outline>
    <contour>
      <point x="714" y="539" type="line"/>
      <point x="770" y="579" type="line"/>
      <point x="770" y="-99" type="line"/>
      <point x="108" y="-99" type="line"/>
      <point x="108" y="771" type="line"/>
      <point x="623" y="771" type="line"/>
      <point x="623" y="715" type="line"/>
      <point x="164" y="715" type="line"/>
      <point x="164" y="-43" type="line"/>
      <point x="714" y="-43" type="line"/>
    </contour>
    <component base="icon" xOffset="148" yOffset="101"/>
  </outline>
</glyph>
<glyph name="a.ss01" format="1">
  <advance width="570"/>
  <outline>
    <contour>
      <point x="415" y="76" type="line"/>
      <point x="412" y="351" type="line"/>
      <point x="425" y="460" type="line"/>
      <point x="495" y="460" type="line"/>
      <point x="495" y="0" type="line"/>
      <point x="425" y="0" type="line"/>
    </contour>
    <contour>
      <point x="257" y="401" type="curve" smooth="yes"/>
      <point x="169" y="401"/>
      <point x="135" y="330"/>
      <point x="135" y="242" type="curve" smooth="yes"/>
      <point x="135" y="103"/>
      <point x="198" y="60"/>
      <point x="269" y="60" type="curve" smooth="yes"/>
      <point x="394" y="60"/>
      <point x="410" y="179"/>
      <point x="410" y="232" type="curve" smooth="yes"/>
      <point x="410" y="317"/>
      <point x="355" y="401"/>
    </contour>
    <contour>
      <point x="421" y="354" type="curve"/>
      <point x="420" y="89" type="line"/>
      <point x="403" y="49"/>
      <point x="347" y="-10"/>
      <point x="261" y="-10" type="curve" smooth="yes"/>
      <point x="125" y="-10"/>
      <point x="55" y="101"/>
      <point x="55" y="241" type="curve" smooth="yes"/>
      <point x="55" y="413"/>
      <point x="145" y="471"/>
      <point x="236" y="471" type="curve" smooth="yes"/>
      <point x="324" y="471"/>
      <point x="389" y="427"/>
    </contour>
    <contour>
      <point x="495" y="0" type="move" name="ogonek"/>
    </contour>
    <contour>
      <point x="282" y="460" type="move" name="top"/>
    </contour>
  </outline>
</glyph>
<glyph name="ampersand.alt" format="1">
  <advance width="615"/>
  <note>
    ampersand
  </note>
  <outline>
    <contour>
      <point x="274" y="350" type="line" smooth="yes"/>
      <point x="212" y="418"/>
      <point x="184" y="461"/>
      <point x="184" y="500" type="curve" smooth="yes"/>
      <point x="184" y="545"/>
      <point x="204" y="576"/>
      <point x="267" y="576" type="curve" smooth="yes"/>
      <point x="333" y="576"/>
      <point x="355" y="542"/>
      <point x="355" y="510" type="curve" smooth="yes"/>
      <point x="355" y="463"/>
      <point x="324" y="420"/>
      <point x="270" y="382" type="curve" smooth="yes"/>
      <point x="219" y="345" type="line"/>
      <point x="258" y="299" type="line"/>
      <point x="310" y="338" type="line" smooth="yes"/>
      <point x="398" y="404"/>
      <point x="429" y="462"/>
      <point x="429" y="514" type="curve" smooth="yes"/>
      <point x="429" y="592"/>
      <point x="372" y="649"/>
      <point x="266" y="649" type="curve" smooth="yes"/>
      <point x="175" y="649"/>
      <point x="100" y="600"/>
      <point x="100" y="510" type="curve" smooth="yes"/>
      <point x="100" y="453"/>
      <point x="132" y="408"/>
      <point x="157" y="379" type="curve" smooth="yes"/>
      <point x="487" y="0" type="line"/>
      <point x="587" y="-1" type="line"/>
    </contour>
    <contour>
      <point x="457" y="335" type="line"/>
      <point x="469" y="263"/>
      <point x="451" y="199"/>
      <point x="414" y="150" type="curve"/>
      <point x="452" y="114" type="line"/>
      <point x="514" y="151"/>
      <point x="542" y="225"/>
      <point x="542" y="335" type="curve"/>
    </contour>
    <contour>
      <point x="453" y="114" type="curve"/>
      <point x="413" y="150" type="line"/>
      <point x="380" y="98"/>
      <point x="315" y="64"/>
      <point x="250" y="64" type="curve" smooth="yes"/>
      <point x="171" y="64"/>
      <point x="122" y="120"/>
      <point x="122" y="191" type="curve" smooth="yes"/>
      <point x="122" y="254"/>
      <point x="154" y="296"/>
      <point x="258" y="323" type="curve"/>
      <point x="233" y="375" type="line"/>
      <point x="92" y="342"/>
      <point x="37" y="277"/>
      <point x="37" y="179" type="curve" smooth="yes"/>
      <point x="37" y="68"/>
      <point x="123" y="-10"/>
      <point x="236" y="-10" type="curve" smooth="yes"/>
      <point x="374" y="-10"/>
      <point x="434" y="81"/>
    </contour>
  </outline>
</glyph>
<glyph name="dotelessi" format="1">
  <advance width="250"/>
  <outline>
    <contour>
      <point x="165" y="0" type="line"/>
      <point x="85" y="0" type="line"/>
      <point x="85" y="460" type="line"/>
      <point x="165" y="460" type="line"/>
    </contour>
    <contour>
      <point x="125" y="460" type="move" name="top"/>
    </contour>
  </outline>
</glyph>
<glyph name="g.ss01" format="1">
  <advance width="570"/>
  <outline>
    <contour>
      <point x="415" y="76" type="line"/>
      <point x="412" y="351" type="line"/>
      <point x="425" y="460" type="line"/>
      <point x="495" y="460" type="line"/>
      <point x="495" y="52" type="line"/>
      <point x="415" y="52" type="line"/>
    </contour>
    <contour>
      <point x="257" y="401" type="curve" smooth="yes"/>
      <point x="169" y="401"/>
      <point x="135" y="330"/>
      <point x="135" y="242" type="curve" smooth="yes"/>
      <point x="135" y="103"/>
      <point x="198" y="60"/>
      <point x="269" y="60" type="curve" smooth="yes"/>
      <point x="394" y="60"/>
      <point x="410" y="179"/>
      <point x="410" y="232" type="curve" smooth="yes"/>
      <point x="410" y="317"/>
      <point x="355" y="401"/>
    </contour>
    <contour>
      <point x="421" y="354" type="curve"/>
      <point x="420" y="89" type="line"/>
      <point x="403" y="49"/>
      <point x="347" y="-10"/>
      <point x="261" y="-10" type="curve" smooth="yes"/>
      <point x="125" y="-10"/>
      <point x="55" y="101"/>
      <point x="55" y="241" type="curve" smooth="yes"/>
      <point x="55" y="413"/>
      <point x="145" y="471"/>
      <point x="236" y="471" type="curve" smooth="yes"/>
      <point x="324" y="471"/>
      <point x="389" y="427"/>
    </contour>
    <contour>
      <point x="495" y="52" type="line"/>
      <point x="495" y="-101"/>
      <point x="386" y="-170"/>
      <point x="264" y="-170" type="curve" smooth="yes"/>
      <point x="219" y="-170"/>
      <point x="141" y="-156"/>
      <point x="97" y="-126" type="curve"/>
      <point x="97" y="-53" type="line"/>
      <point x="137" y="-81"/>
      <point x="210" y="-94"/>
      <point x="251" y="-94" type="curve" smooth="yes"/>
      <point x="339" y="-94"/>
      <point x="415" y="-61"/>
      <point x="415" y="52" type="curve"/>
    </contour>
    <contour>
      <point x="282" y="460" type="move" name="top"/>
    </contour>
  </outline>
</glyph>
<glyph name="numerosign" format="1">
  <advance width="1001"/>
  <outline>
    <contour>
      <point x="582" y="650" type="curve" smooth="yes"/>
      <point x="497" y="650"/>
      <point x="452" y="602"/>
      <point x="452" y="488" type="curve" smooth="yes"/>
      <point x="452" y="296" type="line"/>
      <point x="463" y="160" type="line"/>
      <point x="457" y="160" type="line"/>
      <point x="169" y="640" type="line"/>
      <point x="102" y="640" type="line"/>
      <point x="102" y="150" type="line" smooth="yes"/>
      <point x="102" y="93"/>
      <point x="85" y="59"/>
      <point x="40" y="59" type="curve" smooth="yes"/>
      <point x="9" y="59"/>
      <point x="-8" y="67"/>
      <point x="-20" y="73" type="curve"/>
      <point x="-20" y="22" type="line"/>
      <point x="-6" y="4"/>
      <point x="22" y="-10"/>
      <point x="56" y="-10" type="curve" smooth="yes"/>
      <point x="142" y="-10"/>
      <point x="187" y="38"/>
      <point x="187" y="152" type="curve" smooth="yes"/>
      <point x="187" y="343" type="line"/>
      <point x="177" y="480" type="line"/>
      <point x="182" y="480" type="line"/>
      <point x="471" y="0" type="line"/>
      <point x="537" y="0" type="line"/>
      <point x="537" y="490" type="line" smooth="yes"/>
      <point x="537" y="547"/>
      <point x="554" y="581"/>
      <point x="599" y="581" type="curve" smooth="yes"/>
      <point x="630" y="581"/>
      <point x="647" y="573"/>
      <point x="659" y="567" type="curve"/>
      <point x="659" y="618" type="line"/>
      <point x="645" y="636"/>
      <point x="617" y="650"/>
    </contour>
    <contour>
      <point x="805" y="160" type="curve" smooth="yes"/>
      <point x="898" y="160"/>
      <point x="941" y="259"/>
      <point x="941" y="350" type="curve" smooth="yes"/>
      <point x="941" y="461"/>
      <point x="895" y="510"/>
      <point x="805" y="510" type="curve" smooth="yes"/>
      <point x="715" y="510"/>
      <point x="667" y="461"/>
      <point x="667" y="350" type="curve" smooth="yes"/>
      <point x="667" y="259"/>
      <point x="715" y="160"/>
    </contour>
    <contour>
      <point x="805" y="438" type="curve" smooth="yes"/>
      <point x="844" y="438"/>
      <point x="867" y="417"/>
      <point x="867" y="357" type="curve" smooth="yes"/>
      <point x="867" y="281"/>
      <point x="844" y="231"/>
      <point x="805" y="231" type="curve" smooth="yes"/>
      <point x="766" y="231"/>
      <point x="742" y="281"/>
      <point x="742" y="355" type="curve" smooth="yes"/>
      <point x="742" y="416"/>
      <point x="766" y="438"/>
    </contour>
    <contour>
      <point x="676" y="0" type="line"/>
      <point x="933" y="0" type="line"/>
      <point x="933" y="73" type="line"/>
      <point x="676" y="73" type="line"/>
    </contour>
  </outline>
</glyph>
<glyph name="tildecomb.002" format="1">
  <advance width="324"/>
  <outline>
    <contour>
      <point x="167" y="616" type="curve" smooth="yes"/>
      <point x="127" y="633"/>
      <point x="86" y="647"/>
      <point x="30" y="605" type="curve"/>
      <point x="30" y="546" type="line"/>
      <point x="90" y="590"/>
      <point x="128" y="571"/>
      <point x="167" y="553" type="curve" smooth="yes"/>
      <point x="207" y="536"/>
      <point x="248" y="522"/>
      <point x="304" y="564" type="curve"/>
      <point x="304" y="623" type="line"/>
      <point x="244" y="579"/>
      <point x="206" y="598"/>
    </contour>
    <contour>
      <point x="167" y="460" type="move" name="_top"/>
    </contour>
  </outline>
</glyph>
<glyph name="tunera" format="1">
  <advance width="1156"/>
  <outline>
    <contour>
      <point x="297" y="565" type="curve" smooth="yes"/>
      <point x="297" y="595"/>
      <point x="307" y="630"/>
      <point x="356" y="638" type="curve" smooth="yes"/>
      <point x="397" y="645"/>
      <point x="497" y="648"/>
      <point x="581" y="648" type="curve" smooth="yes"/>
      <point x="665" y="648"/>
      <point x="765" y="646"/>
      <point x="805" y="638" type="curve" smooth="yes"/>
      <point x="854" y="628"/>
      <point x="865" y="595"/>
      <point x="865" y="565" type="curve" smooth="yes"/>
      <point x="865" y="534"/>
      <point x="847" y="512"/>
      <point x="724" y="512" type="curve" smooth="yes"/>
      <point x="693" y="512"/>
      <point x="669" y="515"/>
      <point x="646" y="516" type="curve"/>
      <point x="649" y="272" type="line" smooth="yes"/>
      <point x="649" y="238"/>
      <point x="616" y="222"/>
      <point x="581" y="222" type="curve" smooth="yes"/>
      <point x="546" y="222"/>
      <point x="513" y="238"/>
      <point x="513" y="272" type="curve" smooth="yes"/>
      <point x="516" y="516" type="line"/>
      <point x="493" y="515"/>
      <point x="467" y="512"/>
      <point x="437" y="512" type="curve" smooth="yes"/>
      <point x="314" y="512"/>
      <point x="297" y="534"/>
    </contour>
    <contour>
      <point x="304" y="384" type="curve" smooth="yes"/>
      <point x="304" y="419"/>
      <point x="330" y="446"/>
      <point x="366" y="446" type="curve" smooth="yes"/>
      <point x="405" y="446"/>
      <point x="423" y="419"/>
      <point x="423" y="384" type="curve" smooth="yes"/>
      <point x="423" y="344"/>
      <point x="405" y="326"/>
      <point x="366" y="326" type="curve" smooth="yes"/>
      <point x="330" y="326"/>
      <point x="304" y="344"/>
    </contour>
    <contour>
      <point x="732" y="384" type="curve" smooth="yes"/>
      <point x="732" y="419"/>
      <point x="751" y="446"/>
      <point x="789" y="446" type="curve" smooth="yes"/>
      <point x="827" y="446"/>
      <point x="852" y="419"/>
      <point x="852" y="384" type="curve" smooth="yes"/>
      <point x="852" y="344"/>
      <point x="827" y="326"/>
      <point x="789" y="326" type="curve" smooth="yes"/>
      <point x="751" y="326"/>
      <point x="732" y="344"/>
    </contour>
    <contour>
      <point x="306" y="209" type="curve" smooth="yes"/>
      <point x="306" y="247"/>
      <point x="330" y="266"/>
      <point x="356" y="266" type="curve" smooth="yes"/>
      <point x="379" y="266"/>
      <point x="407" y="251"/>
      <point x="423" y="219" type="curve" smooth="yes"/>
      <point x="433" y="199"/>
      <point x="470" y="115"/>
      <point x="581" y="115" type="curve" smooth="yes"/>
      <point x="692" y="115"/>
      <point x="730" y="199"/>
      <point x="739" y="219" type="curve" smooth="yes"/>
      <point x="753" y="251"/>
      <point x="782" y="266"/>
      <point x="805" y="266" type="curve" smooth="yes"/>
      <point x="831" y="266"/>
      <point x="854" y="247"/>
      <point x="854" y="209" type="curve" smooth="yes"/>
      <point x="854" y="77"/>
      <point x="717" y="-17"/>
      <point x="581" y="-17" type="curve" smooth="yes"/>
      <point x="448" y="-17"/>
      <point x="306" y="75"/>
    </contour>
    <contour>
      <point x="578" y="-181" type="curve" smooth="yes"/>
      <point x="864" y="-181"/>
      <point x="1096" y="51"/>
      <point x="1096" y="337" type="curve" smooth="yes"/>
      <point x="1096" y="623"/>
      <point x="864" y="855"/>
      <point x="578" y="855" type="curve" smooth="yes"/>
      <point x="292" y="855"/>
      <point x="60" y="623"/>
      <point x="60" y="337" type="curve" smooth="yes"/>
      <point x="60" y="51"/>
      <point x="292" y="-181"/>
    </contour>
  </outline>
</glyph>
